<svg width="21" height="20" viewBox="0 0 21 20" fill="none" xmlns="http://www.w3.org/2000/svg">
<path d="M14.4503 7.91602H13.1253V3.74935C13.1253 3.29102 12.7503 2.91602 12.292 2.91602H8.95866C8.50033 2.91602 8.12533 3.29102 8.12533 3.74935V7.91602H6.80033C6.05866 7.91602 5.68366 8.81602 6.20866 9.34102L10.0337 13.166C10.3587 13.491 10.8837 13.491 11.2087 13.166L15.0337 9.34102C15.5587 8.81602 15.192 7.91602 14.4503 7.91602ZM4.79199 16.2493C4.79199 16.7077 5.16699 17.0827 5.62533 17.0827H15.6253C16.0837 17.0827 16.4587 16.7077 16.4587 16.2493C16.4587 15.791 16.0837 15.416 15.6253 15.416H5.62533C5.16699 15.416 4.79199 15.791 4.79199 16.2493Z" fill="white"/>
</svg>
