<svg width="35" height="33" viewBox="0 0 35 33" fill="none" xmlns="http://www.w3.org/2000/svg">
<path d="M2.42699 20.7623H0.584717V25.1168H2.42699M2.42699 16.5752H0.584717V12.3882H2.42699M2.42699 8.36867H0.584717V4.18164H2.42699" stroke="#5C5CFF" stroke-width="0.669921"/>
<path d="M12.3088 28.1319H3.43237M24.1998 14.231V3.51221M24.1998 3.51221V1.33496C24.1998 1.14997 24.0498 1 23.8649 1H2.76245C2.57746 1 2.42749 1.14997 2.42749 1.33496V27.797C2.42749 27.9819 2.57746 28.1319 2.76245 28.1319H3.43237M24.1998 3.51221H28.5307C28.7246 3.51221 28.878 3.67645 28.8648 3.86996L27.8844 18.2505M3.43237 28.1319L16.6632 31.649M8.62423 10.044H18.1706C18.3555 10.044 18.5055 9.894 18.5055 9.70901V5.68947C18.5055 5.50447 18.3555 5.3545 18.1706 5.3545H8.62423C8.43924 5.3545 8.28927 5.50447 8.28927 5.68947V9.70901C8.28927 9.89401 8.43924 10.044 8.62423 10.044Z" stroke="#5C5CFF" stroke-width="1.00488" stroke-linecap="round"/>
<path d="M8.12183 14.2305L18.5056 14.2301" stroke="#5C5CFF" stroke-width="1.00488" stroke-linecap="round"/>
<path d="M8.12183 17.2461L14.6535 17.2461" stroke="#5C5CFF" stroke-width="1.00488" stroke-linecap="round"/>
<path d="M7.95386 20.4277H13.9831" stroke="#5C5CFF" stroke-width="1.00488" stroke-linecap="round"/>
<rect x="20.6677" y="31.6914" width="6.89479" height="1.03838" rx="0.519191" fill="#5C5CFF"/>
<path d="M24.1147 15.7422C24.4014 15.7422 24.6339 15.9746 24.6339 16.2614L24.6339 27.4105C24.6339 27.5155 24.7189 27.6005 24.8239 27.6005C24.8979 27.6005 24.9653 27.6436 24.9963 27.7109L25.0099 27.7402C25.0469 27.8205 25.0369 27.9146 24.9839 27.9853L24.9467 28.0348C24.8694 28.138 24.8561 28.2757 24.9124 28.3917L25.007 28.5868C25.0985 28.7754 25.0913 28.997 24.988 29.1795L24.8811 29.3681C24.8312 29.4562 24.8337 29.5646 24.8876 29.6503C25.0029 29.8334 24.8713 30.0719 24.6549 30.0719L23.5868 30.0719C23.3686 30.0719 23.2385 29.8287 23.3595 29.6471C23.4153 29.5634 23.4206 29.4557 23.3733 29.367L23.2731 29.1791C23.1759 28.9969 23.1743 28.7785 23.2689 28.5949L23.363 28.4123C23.4286 28.285 23.4126 28.131 23.3223 28.0199L23.2757 27.9625C23.229 27.905 23.214 27.828 23.2358 27.7572L23.2451 27.727C23.2682 27.6518 23.3377 27.6005 23.4163 27.6005C23.5153 27.6005 23.5955 27.5203 23.5955 27.4213L23.5955 16.2614C23.5955 15.9746 23.828 15.7422 24.1147 15.7422Z" fill="#5C5CFF"/>
<rect x="28.2263" y="29.5742" width="6.1887" height="0.664564" rx="0.332282" fill="#5C5CFF"/>
<rect width="8.73655" height="0.398455" rx="0.199227" transform="matrix(0.282698 -0.959209 0.959208 0.282702 28.5017 29.7734)" fill="#5C5CFF"/>
<rect width="8.73655" height="0.398455" rx="0.199227" transform="matrix(-0.282698 -0.959209 -0.959208 0.282702 34.0691 29.7734)" fill="#5C5CFF"/>
<path d="M21.7048 31.4017C21.7048 30.8282 22.1697 30.3633 22.7432 30.3633H25.4845C26.058 30.3633 26.5229 30.8282 26.5229 31.4017H21.7048Z" fill="#5C5CFF"/>
<path d="M25.5472 18.5664C25.5472 18.5664 26.2832 18.7334 26.8763 19.0648C27.7687 19.5634 28.1971 20.6862 29.2023 20.8716C29.7706 20.9764 30.6352 20.7262 30.6352 20.7262C30.6352 20.7262 30.7671 20.5489 30.8844 20.477C30.9873 20.4141 31.1382 20.3638 31.2583 20.3524C31.1236 20.4256 30.9135 20.5399 30.9135 20.5399L30.631 20.7274L30.926 21.0793C30.92 21.2662 31.0805 21.3965 31.2583 21.3908C31.4302 21.3853 31.5698 21.2513 31.5698 21.0793C31.5698 20.9072 31.4302 20.7733 31.2583 20.7678C31.0805 20.762 30.9317 20.9015 30.926 21.0793L30.631 20.7274L30.9135 20.5399C30.9135 20.5399 31.1236 20.4256 31.2583 20.3524C31.6113 20.3524 31.991 20.6721 31.9851 21.0793C31.9793 21.4808 31.6598 21.7801 31.2583 21.7854C31.071 21.7878 30.8014 21.64 30.8014 21.64C30.8014 21.64 30.2599 21.835 29.8461 21.8685C29.425 21.9025 29.1141 21.8653 28.7039 21.7646C27.6872 21.5151 27.4082 20.9249 26.7102 20.1447C26.3571 19.7502 25.4226 19.5009 25.4226 19.5009C25.5201 19.2393 25.545 19.0302 25.5472 18.5664Z" fill="#5C5CFF"/>
<path d="M34.2078 30.5287C32.5822 31.9511 30.1625 31.9769 28.507 30.5894L28.4344 30.5287H34.2078Z" fill="#5C5CFF"/>
<rect width="6.1887" height="0.664564" rx="0.332282" transform="matrix(-1 0 0 1 19.8357 26.498)" fill="#5C5CFF"/>
<rect width="8.73655" height="0.398455" rx="0.199227" transform="matrix(-0.282698 -0.959209 -0.959208 0.282702 19.5613 26.6992)" fill="#5C5CFF"/>
<rect width="8.73655" height="0.398455" rx="0.199227" transform="matrix(0.282698 -0.959209 0.959208 0.282702 13.9939 26.6992)" fill="#5C5CFF"/>
<path d="M22.9882 17.989C22.9882 17.989 22.2471 17.8462 21.5708 17.9113C20.5534 18.0092 19.7099 18.8653 18.7149 18.6311C18.1524 18.4987 17.4611 17.9221 17.4611 17.9221C17.4611 17.9221 17.4117 17.7067 17.3331 17.5938C17.2642 17.4948 17.1462 17.388 17.0409 17.3294C17.1347 17.4506 17.2812 17.6397 17.2812 17.6397L17.4645 17.9249L17.053 18.1286C16.9834 18.3021 16.7841 18.357 16.6236 18.2803C16.4684 18.2061 16.3944 18.0274 16.4635 17.8698C16.5326 17.7123 16.7143 17.6457 16.8739 17.7098C17.039 17.776 17.1192 17.9635 17.053 18.1286L17.4645 17.9249L17.2812 17.6397C17.2812 17.6397 17.1347 17.4506 17.0409 17.3294C16.7176 17.1876 16.2414 17.3277 16.0832 17.7029C15.9271 18.073 16.0994 18.4754 16.465 18.6416C16.6355 18.7191 16.9418 18.6921 16.9418 18.6921C16.9418 18.6921 17.3593 19.0882 17.7248 19.2852C18.0967 19.4855 18.3963 19.5764 18.8124 19.6491C19.8436 19.8291 20.3363 19.4008 21.289 18.9669C21.7708 18.7475 22.7267 18.8948 22.7267 18.8948C22.7426 18.6161 22.8039 18.4146 22.9882 17.989Z" fill="#5C5CFF"/>
<path d="M13.8552 27.4544C15.4808 28.8769 17.9005 28.9027 19.556 27.5152L19.6286 27.4544H13.8552Z" fill="#5C5CFF"/>
<path d="M25.2363 18.8351C25.2363 19.443 24.7435 19.9357 24.1356 19.9357C23.5277 19.9357 23.0349 19.443 23.0349 18.8351C23.0349 18.2272 23.5277 17.7344 24.1356 17.7344C24.7435 17.7344 25.2363 18.2272 25.2363 18.8351ZM23.8555 18.8351C23.8555 18.9898 23.9809 19.1152 24.1356 19.1152C24.2903 19.1152 24.4157 18.9898 24.4157 18.8351C24.4157 18.6804 24.2903 18.555 24.1356 18.555C23.9809 18.555 23.8555 18.6804 23.8555 18.8351Z" fill="#5C5CFF"/>
</svg>
